<svg width="18" height="19" viewBox="0 0 18 19" fill="none" xmlns="http://www.w3.org/2000/svg">
<g id="basil:instagram-solid">
<path id="Vector" d="M9 7.0625C8.35353 7.0625 7.73355 7.31931 7.27643 7.77643C6.81931 8.23355 6.5625 8.85353 6.5625 9.5C6.5625 10.1465 6.81931 10.7665 7.27643 11.2236C7.73355 11.6807 8.35353 11.9375 9 11.9375C9.64647 11.9375 10.2665 11.6807 10.7236 11.2236C11.1807 10.7665 11.4375 10.1465 11.4375 9.5C11.4375 8.85353 11.1807 8.23355 10.7236 7.77643C10.2665 7.31931 9.64647 7.0625 9 7.0625Z" fill="white"/>
<path id="Vector_2" fill-rule="evenodd" clip-rule="evenodd" d="M5.07749 2.81152C7.6845 2.52254 10.3155 2.52254 12.9225 2.81152C14.3467 2.97052 15.495 4.09177 15.6622 5.52127C15.9714 8.16476 15.9714 10.8353 15.6622 13.4788C15.495 14.9083 14.3467 16.0295 12.9232 16.1893C10.316 16.4783 7.68475 16.4783 5.07749 16.1893C3.65324 16.0295 2.50499 14.9083 2.33774 13.4795C2.02853 10.8358 2.02853 8.16501 2.33774 5.52127C2.50499 4.09177 3.65324 2.97052 5.07749 2.81152ZM12.75 5.00002C12.5511 5.00002 12.3603 5.07904 12.2197 5.21969C12.079 5.36034 12 5.55111 12 5.75002C12 5.94893 12.079 6.1397 12.2197 6.28035C12.3603 6.421 12.5511 6.50002 12.75 6.50002C12.9489 6.50002 13.1397 6.421 13.2803 6.28035C13.421 6.1397 13.5 5.94893 13.5 5.75002C13.5 5.55111 13.421 5.36034 13.2803 5.21969C13.1397 5.07904 12.9489 5.00002 12.75 5.00002ZM5.43749 9.50002C5.43749 8.55518 5.81282 7.64905 6.48092 6.98095C7.14902 6.31285 8.05515 5.93752 8.99999 5.93752C9.94482 5.93752 10.851 6.31285 11.5191 6.98095C12.1872 7.64905 12.5625 8.55518 12.5625 9.50002C12.5625 10.4449 12.1872 11.351 11.5191 12.0191C10.851 12.6872 9.94482 13.0625 8.99999 13.0625C8.05515 13.0625 7.14902 12.6872 6.48092 12.0191C5.81282 11.351 5.43749 10.4449 5.43749 9.50002Z" fill="white"/>
</g>
</svg>
