<svg width="20" height="21" viewBox="0 0 20 21" fill="none" xmlns="http://www.w3.org/2000/svg">
<g id="carbon:logo-twitter">
<path id="Vector" d="M7.21688 16.595C12.8775 16.595 15.9731 11.9056 15.9731 7.83875C15.9731 7.70562 15.9731 7.57312 15.9644 7.44125C16.5668 7.00541 17.0868 6.46572 17.5 5.8475C16.9384 6.09666 16.3426 6.26014 15.7325 6.3325C16.3748 5.94768 16.8554 5.34267 17.085 4.63C16.481 4.9884 15.8203 5.24099 15.1312 5.37687C14.6672 4.88346 14.0535 4.55673 13.3851 4.44725C12.7167 4.33777 12.0308 4.45163 11.4336 4.77122C10.8364 5.09081 10.3612 5.59831 10.0815 6.2152C9.80175 6.83208 9.73314 7.52395 9.88625 8.18375C8.66275 8.12242 7.46582 7.80451 6.37315 7.25064C5.28048 6.69676 4.31649 5.91931 3.54375 4.96875C3.15031 5.64629 3.02986 6.4483 3.20694 7.21152C3.38401 7.97474 3.84529 8.64179 4.49688 9.07687C4.00706 9.06225 3.52795 8.92998 3.1 8.69125V8.73062C3.10019 9.44112 3.34612 10.1297 3.79608 10.6796C4.24604 11.2294 4.87233 11.6067 5.56875 11.7475C5.11572 11.8709 4.64043 11.8889 4.17937 11.8C4.376 12.4115 4.75882 12.9463 5.2743 13.3295C5.78978 13.7128 6.41215 13.9253 7.05437 13.9375C6.41625 14.4389 5.68557 14.8095 4.90409 15.0283C4.12262 15.2471 3.30568 15.3097 2.5 15.2125C3.90722 16.1158 5.54467 16.5951 7.21688 16.5931" fill="white"/>
</g>
</svg>
